<?xml version="1.0" encoding="utf-8"?>
<svg xmlns="http://www.w3.org/2000/svg" viewBox="95 516 100 55" width="800px" height="230px">
    <defs>
        <style type="text/css">
            .land {
                fill: #FFE2E2;
            }
        </style>

    </defs>
    <g>
        <path id="SN-DB" title="Diourbel" class="land" d="M101.156,561.749l-0.571,-1.517l-4.896,0.453l-2.245,-0.642l-0.039,-0.425l-1.345,-0.921l-0.985,-1.402l0.123,-0.323l-0.641,-0.172l-0.307,-0.748l-0.758,0.179l-0.334,-0.391l0.255,-0.972l-0.678,-0.167l0.108,-1.629l2.549,-3.529l1.178,-0.517l0.562,-1.851l-0.453,-0.148l-0.087,-0.836l0.387,-0.491l0.492,-2.009l-5.154,-4.347l0.549,-1.286l1.885,-1.671l-0.335,-2.032l-1.113,-1.494l-1.591,-1.298l-3.055,-3.92l0.522,-0.628l2.19,-2.004l1.752,-0.868l4.336,-0.918l6.312,-1.922l0.526,-0.213l-0.102,-0.691l3.128,-0.163l2.473,-1.621l2.85,-0.82l5.121,0.242l0.301,0.322l0.576,-0.167l1.446,0.347l0.705,-1.018l0.32,0.27l-0.296,0.895l1.931,0.601l0.415,-0.523l0.712,-0.047l0.623,0.549l-0.021,0.818l4.506,1.212l2.633,1.171l0.746,0.513l-0.305,0.467l0.345,1.501l1.103,-0.371l0.356,0.455l0.926,0.102l4.052,-1.1l0,0l2.456,-0.023l3.048,0.528l2.132,-0.416l1.695,0.13l1.911,-0.918l1.805,-0.453l2.67,0.861l2.022,1.057l0.676,-1.497l0.692,-0.648l3.841,0.165l0.17,-0.539l1.366,-1.081l1.148,-0.332l1.705,0.351l0.087,0.398l-0.343,0.321l6.167,-0.918l0.205,0.542l1.163,1.139l3.894,1.746l1.165,1.525l0.345,1.341l1.294,2.242l1.261,1.023l1.805,-0.166l1.551,-0.873l2.435,-3.345l0.776,-0.437l0.686,0.043l0.573,0.342l0.349,1.181l1.903,2.06l0.785,1.393l0.018,0.821l-0.515,0.91l2.437,1.114l1.623,0.422l-0.403,0.444l5.955,3.67l4.17,-1.512l1.243,-0.148l2.12,0.467l2.973,1.159l0.176,0.649l-0.244,1.761l1.441,0.823l0,0l-0.847,0.873l-2.024,4.314l-0.615,1.64l-0.219,1.562l-4.985,1.1l-4.162,3.498l-0.851,-0.029l0,0l-0.577,-0.831l-0.236,-1.324l-0.996,-0.894l-0.521,1.345l-0.461,-0.035l-2.089,-0.716l0.147,-1.709l-1.586,0.604l-1.477,-1.219l0.244,-1.572l-1.109,-0.103l-1.174,0.804l-1.033,-0.298l-1.137,0.56l-0.379,0.371l-0.135,2.343l-2.738,-1.656l-2.284,-0.796l-2.333,-1.597l-2.09,-1.002l-1.09,0.645l-0.757,3.952l0.605,4.495l-0.189,1.836l0.247,0.926l-1.11,3.352l-1.349,1.504l-3.079,2.237l-1.81,0.802l-2.543,0.542l-3.486,2.019l-4.618,0.01l-1.254,0.341l-2.139,-0.575l-1.909,-0.725l-0.661,-1.019l-0.07,-1.564l-2.863,0.274l-0.562,0.953l-2.53,-0.162l-0.626,0.204l-2.397,-0.343l-2.45,-0.957l-0.55,0.239l-0.134,-0.588l-0.388,-0.161l-0.844,0.316l-1.137,-0.398l0.008,-0.694l-0.307,-0.19l-1.234,0.303l-2.993,-1.542l-0.784,0.719l-3.576,-0.318l-1.371,0.026l-0.78,0.363l-1.898,-0.229l-0.718,-0.582l-1.674,-0.236l-0.647,-0.732l-0.966,-0.263l-0.253,-0.953l-1.42,-0.418l-1.699,0.914l-0.655,-0.431l-1.133,0.601l-0.639,-0.092l-0.724,0.366l-3.229,-0.004l-1.548,0.725l-1.672,-0.574L101.156,561.749z"/>
    </g>
</svg>