<?xml version="1.0" encoding="utf-8"?>
<svg xmlns="http://www.w3.org/2000/svg" viewBox="70 545 100 120" width="800px" height="230px">
    <defs>
        <style type="text/css">
            .land {
                fill: #FFE2E2;
            }
        </style>

    </defs>
    <g>
        <path id="SN-FK" title="Fatick" class="land" d="M87.786,656.963l0.494,0.981l0.411,0.141l0.027,0.392h0.521l0.542,0.617l0.527,0.112l-0.274,0.364l-1.207,-0.364l-1.289,-2.103L87.786,656.963zM89.239,653.823l0.603,0.981l-0.411,0.729l-0.713,0.477L89.239,653.823zM101.156,561.749l2.84,-0.25l1.672,0.574l1.548,-0.725l3.229,0.004l0.724,-0.366l0.639,0.092l1.133,-0.601l0.655,0.431l1.699,-0.914l1.42,0.418l0.253,0.953l0.966,0.263l0.647,0.732l1.674,0.236l0.718,0.582l1.898,0.229l0.78,-0.363l1.371,-0.026l3.576,0.318l0.784,-0.719l2.993,1.542l1.234,-0.303l0.307,0.19l-0.008,0.694l1.137,0.398l0.844,-0.316l0.388,0.161l0.134,0.588l0.55,-0.239l2.45,0.957l2.397,0.343l0.626,-0.204l2.53,0.162l0.562,-0.953l2.863,-0.274l0.07,1.564l0.661,1.019l1.909,0.725l2.139,0.575l1.254,-0.341l4.618,-0.01l3.486,-2.019l2.543,-0.542l1.81,-0.802l3.079,-2.237l1.349,-1.504l1.11,-3.352l-0.247,-0.926l0.189,-1.836l-0.605,-4.495l0.757,-3.952l1.09,-0.645l2.09,1.002l2.333,1.597l2.284,0.796l2.738,1.656l0.135,-2.343l0.379,-0.371l1.137,-0.56l1.033,0.298l1.174,-0.804l1.109,0.103l-0.244,1.572l1.477,1.219l1.586,-0.604l-0.147,1.709l2.089,0.716l0.461,0.035l0.521,-1.345l0.996,0.894l0.236,1.324l0.577,0.831l0,0l-0.067,2.552l0.325,2.455l1.266,1.433l1.04,0.379l-1.906,1.067l-0.431,-0.48l-6.715,5.424l0.095,2.646l-0.763,0.61l-2.875,-0.879l-0.84,0.094l-0.304,0.837l0.745,0.931l-0.649,0.241l0,0l-1.737,-1.141l-2.433,0.066l-0.815,0.382l-0.17,0.798l-0.556,0.765l-0.455,2.516l-0.798,0.951l-1.281,0.552l-2,0.11l-0.91,1.705l-1.458,5.115l-0.57,0.083l-8.556,-0.188l0.045,-6.605l-0.396,-0.67l-1.307,-0.161l-0.671,1.326l-0.583,0.39l-0.578,-0.251l-0.597,-0.923l-0.946,-0.716l-1.315,-0.328l-1.706,1.493l-0.209,1.111l-0.806,0.861l-1.58,0.275l-0.109,1.733l-1.38,1.467l0.161,0.858l-0.498,0.461l-1.748,0.733l-1.109,0.059l-1.03,-0.563l-2.813,-0.504l-1.461,1.035l-2.021,0.669l-2.383,-0.255l-2.347,0.226l-0.97,0.545l-0.797,1.109l-0.517,2.148l-5.006,-0.493l0.129,0.277l-0.792,0.529l0.223,0.951l-1.006,1.354l-0.434,0.221l-1.314,-0.732l-0.415,0.641l-0.395,-0.128l-0.613,0.673l-1.105,0.467l-0.227,0.771l-1.322,0.603l-0.157,0.346l-2.119,-0.27l-0.476,0.432l-0.603,2.141l-0.301,0.192l0.219,0.442l-0.958,0.339l0.864,0.556l-0.112,0.584l-0.269,0.329l-0.417,-0.002l-0.205,-0.535l-0.455,0.086l0.394,1.368l-0.268,1.526l1.442,1.03l-0.506,0.424l-0.645,-0.084l-0.145,0.344l0.476,0.608l0.4,-0.044l-0.143,0.383l-0.948,-0.456l-0.191,0.707l-0.486,-0.234l-0.207,0.981l-0.725,-0.011l0.531,0.712l0.902,-0.247l2.023,0.125l1.718,-0.565l2.958,0.212l1.668,1.298l2.152,0.797l3.143,2.66l0.424,2.683l-0.096,2.612l-0.519,0.822l-2.755,1.785l-0.305,0.999l-0.779,0.838l-0.232,1.211l0.121,0.356l1.043,0.692l0.171,-0.22l2.674,-0.225l1.575,0.481l-0.323,1.577l1.468,0.129l-0.066,1.562l0.704,1.019l0.529,5.412l-0.534,0.35l-0.762,2.002l-0.009,1.001l-0.396,0.21l-1.125,2.019l-1.84,-0.12l-0.462,0.224l0.868,0.973l-0.663,3.465l1.973,1.106l0.441,0.901l4.295,3.814l0.555,-0.552l0.49,-0.012l0.227,0.302l0.489,5.375l0.423,1.658l0.405,0.987l1.341,1.282l-0.108,0.908l1.295,0.161l-0.258,1.301l-1.413,0.706l0.102,0.678l1.119,0.649l-0.285,0.833l-0.802,0.685l0,0l-34.325,-0.067l-0.8,0.229l-4.728,-0.235l-0.091,-0.737l-0.425,-0.168l-0.91,0.536l-0.762,-1.555l-1.691,-1.316l0.174,-0.617l-0.92,-1.152l-1.943,-0.702l-1.801,-2.229l-0.533,-1.262l-0.33,-0.018v-2.804l0.502,-1.543l-1.569,-2.552l-0.615,-0.229l-2.569,-2.66l-0.218,0.253l-0.932,-0.141l-0.795,-1.458l-1.551,-0.82l-2.824,-0.737l-0.45,-0.665l-0.329,1.044l-0.329,0.141l-0.411,-6.201l0.384,-2.722l0.274,1.6l-0.247,2.554l0.192,1.739l0.322,0.337l-0.151,-9.663l-0.845,-0.227l-0.204,-0.662l-0.959,-11.684l0,0l0.931,-1.238l1.15,-0.06l-0.09,-2.131l-1.389,-1.517l0.094,-0.608l-2.238,-1.448l-0.267,-0.388l0.05,-0.607l0.657,-0.972l0.499,-0.145l0.871,0.331l1.16,-0.423l0.553,0.107l0.013,-0.59l-0.98,-1.421l0.595,-0.832l0.802,-0.249l0.792,-1.054l0.708,-0.092l1.003,-1.167l0.004,-1.377l-1.46,-0.77l-0.622,-0.878l0.301,-0.801l-0.372,-1.316l1.236,-0.518l0.921,-0.867l-0.577,0.014l-0.482,-0.691l2.542,-3.719l0.173,-0.943l-0.326,-4.112l0.507,-4.238l0.529,-1.072l0.213,-1.585l0.659,-0.775l4.101,0.24l1.414,-0.302l1.744,-1.875l2.222,-0.907l4.318,-3.648l1.495,-2.658l0.917,-3.637l-0.046,-0.735l0.945,-1.821L101.156,561.749z"/>
    </g>
</svg>