<?xml version="1.0" encoding="utf-8"?>
<svg xmlns="http://www.w3.org/2000/svg" viewBox="470 674 100 119" width="800px" height="230px">
    <defs>
        <style type="text/css">
            .land {
                fill: #FFE2E2;
            }
        </style>

    </defs>
    <g>
        <path id="SN-KE" title="Kédougou" class="land" d="M436.241,758.746L436.366,758.488L433.834,757.064L433.188,756.2L433.196,755.045L433.823,754.397L436.054,753.229L437.688,752.589L439.615,752.334L438.094,750.467L436.935,746.009L437.267,745.375L436.9,744.632L437.797,743.222L438.415,742.973L437.432,742.186L437.177,741.608L438.346,741.049L438.43,740.762L437.791,739.771L435.879,739.787L433.278,738.906L433.076,738.022L433.883,736.764L431.354,735.473L431.229,734.772L431.606,733.561L430.287,732.575L431.249,732.466L432.229,732.897L432.981,732.571L434.097,731.336L433.8,730.729L433.84,729.697L432.748,729.004L432.108,727.84L431.918,726.786L430.497,725.452L430.216,725.423L429.84,726.107L429.542,726.131L429.045,724.536L427.873,723.509L427.33,721.956L425.228,721.618L424.793,721.213L424.962,720.635L425.191,720.889L425.65,720.814L426.527,719.958L427.207,719.877L428.092,719.13L427.776,718.63L428.005,718.338L427.79,717.258L429.13,717.295L430.043,716.386L429.993,716.955L430.545,717.033L430.838,716.87L430.936,716.11L431.684,715.827L432.516,716.862L431.973,717.289L433.055,717.34L433.229,716.888L433.608,716.814L434.358,717.342L435.257,716.759L438.466,718.308L440.044,719.521L440.811,719.194L441.987,717.208L442.955,716.559L443.213,715.843L444.01,716.644L444.859,716.5L445.967,716.775L446.233,716.343L446.217,715.508L446.927,715.637L448.11,715.371L449.085,714.91L449.357,714.264L450.032,714.926L451.2,714.727L451.774,715.413L453.147,714.205L454.095,715.012L455.408,714.35L454.856,715.776L455.058,716.039L455.936,716.05L456.503,716.729L456.879,716.669L456.733,717.209L457.151,718.149L457.736,717.833L458.244,717.088L458.713,717.736L460.365,718.662L460.596,719.947L461.305,719.601L462.102,720.16L461.804,720.906L462.818,721.155L463.392,721.667L464.531,720.812L465.366,722.559L466.896,722.828L467.163,722.242L466.296,721.443L466.393,720.726L466.881,720.562L467.728,720.874L467.053,719.956L467.018,719.496L468.411,719.337L468.226,718.695L468.468,718.582L469.374,718.885L470.728,718.759L470.681,717.065L471.63,716.801L472.012,717.173L472.318,716.999L471.919,715.934L472.255,714.823L473.066,715.231L473.149,714.602L473.652,714.465L474.748,714.826L475.174,715.277L475.658,715.14L476.436,714.623L476.45,714.273L476.096,713.999L476.138,713.305L477.873,713.126L478.315,712.078L479.435,711.748L479.293,710.538L480.7,709.612L480.578,708.637L481.295,708.76L480.93,708.483L481.152,708.119L480.43,707.66L480.876,706.914L480.629,706.59L480.856,706.296L480.581,706.232L480.5,704.901L481.45,705.034L482.168,704.821L482.558,704.167L483.128,704.573L483.933,704.189L484.423,703.616L484.422,703.056L484.938,702.7L487.457,703.189L487.326,702.908L488.413,702.57L488.607,701.298L489.453,701.559L489.762,702.432L490.143,702.107L490.983,702.086L491.627,703.194L492.312,703.746L493.033,703.97L494.08,703.418L494.591,703.843L495.372,703.375L495.724,703.83L496.082,703.803L496.271,703.138L496.718,702.781L497.641,702.549L498.663,702.836L499.005,702.6L499.004,702.024L499.754,701.521L500.422,698.96L501.779,698.273L501.664,697.261L502.055,697.257L502.158,696.799L503.883,695.459L505.426,695.05L506.133,693.747L507.364,693.969L509.977,692.921L512.635,694.615L513.679,696.241L514.118,696.377L515.061,696.07L515.204,695.785L515.197,694.398L516.395,692.927L516.758,690.427L517.857,690.461L518.354,690.761L520.261,690.604L521.907,691.046L522.393,690.585L523.347,690.506L524.34,689.945L525.292,688.337L525.178,687.969L524.422,687.316L521.46,682.663L521.513,681.364L521.261,680.836L521.834,679.823L522.414,679.623L522.721,678.026L522.526,676.515L523.334,675.988L524.808,676.824L525.168,676.685L527.373,677.727L527.723,678.168L531.182,680.144L532.831,680.693L533.196,681.887L533.877,682.663L534.968,682.949L536.757,684.615L540.013,685.19L541.836,686.412L544.44,685.043L544.069,686.995L544.467,687.948L544.194,689.029L543.779,689.385L544.233,690.867L545.594,691.102L546.76,689.631L547.762,689.626L548.155,689.182L548.597,689.148L550.823,687.024L551.638,685.584L552.348,685.454L553.286,685.745L554.098,685.434L554.482,684.973L556.607,684.6L557.396,683.995L558.344,683.729L558.344,683.729L559.935,684.019L560.842,685.661L562.616,686.896L563.392,688.757L563.863,688.786L564.337,689.233L564.44,690.157L563.972,691.117L566.749,691.104L567.169,690.836L567.373,689.347L567.854,688.619L568.614,688.197L569.933,688.197L570.173,687.932L570.841,685.307L572.429,683.264L572.115,682.237L572.289,681.168L573.227,680.503L574.094,680.321L576.739,680.688L577.708,681.804L577.762,683.056L580.349,683.08L582.37,682.426L584.339,682.671L584.438,684.183L583.254,685.598L585.263,685.94L586.732,685.322L587.266,685.415L587.542,685.927L587.488,688.577L588.292,689.978L588.037,691.114L589.378,691.628L590.277,692.897L592.197,693.143L592.859,694.008L592.64,694.797L593.449,695.735L594.606,696.347L594.585,696.965L592.797,699.299L592.655,701.12L592.892,701.894L593.342,702.299L596.08,702.423L596.647,702.63L596.887,703.036L596.922,704.246L596.571,705.082L595.056,706.457L595.261,707.426L596.642,707.853L597.23,710.232L598.643,710.981L599.184,712.322L602.441,712.471L604.217,714.204L604.154,715.078L603.203,716.239L603.205,716.672L603.869,717.098L604.785,718.383L605.557,718.675L605.596,719.491L605.178,720.337L606.635,720.743L607.068,721.3L607.03,722.106L605.866,722.588L605.148,722.511L605.201,723.156L606.048,724.093L605.85,724.858L606.212,724.808L606.79,724.984L607.495,725.696L607.932,725.54L608.185,724.708L607.879,723.187L608.162,722.875L610.01,723.153L610.948,724.297L611.064,726.393L611.995,728.346L611.575,729.175L610.581,729.519L607.625,730.226L607.347,730.109L607.216,729.507L606.788,729.801L606.662,731.112L607.905,731.491L607.92,732.279L606.642,733.503L606.347,734.664L607.238,736.565L606.904,737.154L605.761,737.861L606.543,738.609L606.456,739.764L607.334,739.675L607.808,739.234L608.479,739.427L607.897,741.155L608.581,742.442L608.404,744.565L607.732,745.123L606.949,745.175L607.869,745.639L608.901,747.166L608.318,748.197L608.759,748.519L609.741,748.499L610.282,749.638L608.002,750.065L604.283,749.984L604.329,752.931L603.493,753.286L602.943,752.522L602.96,754.491L602.095,754.975L601.911,755.366L602.316,756.225L603.289,756.389L604.398,756.144L605.355,757.515L605.482,758.776L605.986,759.09L605.953,760.108L605.489,760.766L604.491,761.19L604.434,761.765L604.55,762.167L606.039,763.093L606.355,763.705L605.806,765.362L604.691,766.34L602.604,766.184L602.08,767.863L602.348,768.173L602.875,767.592L603.639,767.635L604.053,768.207L604.077,769.828L605.019,770.117L605.253,770.01L605.23,769.011L605.563,768.39L606.116,768.268L606.637,768.725L607.921,768.724L607.99,769.307L607.542,770.135L608.528,770.322L608.779,770.746L608.454,773.359L609.059,774.089L608.808,773.107L609.585,771.538L610.171,771.523L610.749,771.881L611.051,772.683L611.19,774.113L610.824,773.886L610.479,774.547L611.297,775.107L611.443,776.214L610.631,776.31L610.144,777.359L609.162,777.405L609.334,778.353L610.003,779.173L609.667,780.8L608.562,781.128L608.158,780.874L606.538,780.889L604.483,779.007L603.045,778.583L601.974,778.724L600.996,778.375L599.994,778.41L599.073,777.724L596.687,777.871L587.672,778.8L586.587,779.584L585.733,779.476L584.976,779.881L583.625,779.204L580.934,779.824L579.858,780.196L577.091,782.517L575.439,782.473L574.068,783.648L571.793,783.655L570.201,784.162L569.404,783.205L567.479,783.063L567.355,782.61L566.762,782.162L565.875,782.789L565.621,782.493L563.883,782.326L562.234,783.055L562.078,782.588L560.778,781.505L560.626,780.862L559.57,780.761L557.965,780.024L557.163,777.792L550.905,781.693L549.839,782.067L549.227,781.826L546.125,782.438L545.645,782.261L545.279,781.633L544.129,781.153L543.161,779.957L541.811,779.904L541.074,779.341L540.418,779.887L539.604,779.835L536.034,781.11L535.598,781.421L534.938,782.959L534.133,783.933L532.426,784.342L532.023,785.06L529.854,786.117L529.555,786.742L528.453,786.674L526.56,787.216L525.044,786.975L524.428,787.599L523.567,787.854L522.732,787.454L520.088,788.505L519.512,789.154L518.217,789.096L511.991,792L511.094,789.15L510.271,788.607L509.211,786.213L508.616,785.689L508.571,785.18L507.207,784.194L505.967,784.347L504.752,784.084L502.848,782.74L498.551,781.922L497.567,782.267L496.55,782.223L493.848,785.016L491.516,786.01L490.51,784.323L489.828,783.934L489.573,782.819L489.804,781.943L488.249,782.368L487.059,781.45L486.712,780.149L485.548,779.305L483.709,778.965L481.432,779.474L479.338,778.883L472.32,779.423L471.771,779.245L472.708,777.032L472.916,776.252L472.709,776.037L471.641,775.345L471.015,775.688L469.078,774.409L468.135,774.947L466.931,775.103L466.146,774.672L465.597,773.953L463.975,773.374L463.847,772.982L464.968,771.584L464.772,771.119L463.883,771.104L460.681,769.697L460.013,768.604L460.413,767.764L459.288,767.371L458.339,767.806L455.829,768.234L454.089,769.088L453.709,769.869L454.327,770.451L454.236,771.333L454.53,771.929L453.871,775.128L452.177,775.228L451.43,776.054L449.284,775.554L448.505,774.683L445.477,774.372L444.758,774.766L442.614,774.351L441.946,773.521L442.191,771.059L441.752,769.309L442.124,768.728L443.141,768.067L443.212,766.423L444.266,765.037L444.003,763.533L444.141,762.584L443.439,761.479L443.734,760.337L442.243,759.38L442.62,758.559L442.425,758.352L441.181,758.314L440.907,759.077L439.784,759.437L439.374,760.071L439.111,759.757L438.47,759.897L437.896,759.096L436.971,759.12L436.981,758.533z"/>
    </g>
</svg>