<?xml version="1.0" encoding="utf-8"?>
<svg xmlns="http://www.w3.org/2000/svg" viewBox="80 540 300 110" width="800px" height="230px">
    <defs>
        <style type="text/css">
            .land {
                fill: #FFE2E2;
            }
        </style>

    </defs>
    <g>
        <path id="SN-KA" title="Kaffrine" class="land" d="M209.269,541.355L210.94,541.137L213.924,543.528L216.257,547.252L219.085,550.507L221.321,552.711L226.133,555.608L248.748,559.858L249.405,557.314L259.943,550.51L263.974,555.259L265.855,555.262L265.855,555.262L268.744,558.479L270.394,558.984L276.059,562.574L278.441,562.576L279.395,561.592L281.102,561.322L285.524,561.387L285.74,562.577L286.126,562.739L286.945,562.644L287.424,562.104L288.297,562.147L290.662,563.005L290.696,563.439L290.696,563.439L290.115,564.711L287.991,564.873L287.417,574.281L287.665,577.371L287.558,577.886L287.211,578.072L286.512,591.126L288.114,592.979L290.87,595.355L290.941,595.761L292.014,607.257L291.277,611.87L291.95,612.095L292.324,612.591L291.267,614.056L292.176,620.9L291.537,621.625L289.378,622.908L291.886,623.117L290.159,627.814L283.081,632.555L281.418,633.33L278.632,640.021L270.522,640.831L268.648,643.296L267.646,644.15L267.688,644.551L267.232,645.003L267.232,645.003L267.23,644.997L267.23,644.997L263.636,643.076L261.018,642.221L256.308,641.69L254.234,642.23L253.332,642.166L244.877,639.062L239.006,641.108L229.772,646.854L227.39,646.872L225.939,645.369L224.171,644.12L222.464,643.542L219.792,643.197L217.575,643.475L214.883,644.448L212.935,645.405L211.801,646.339L211.739,646.813L211.128,647.093L211.128,647.093L211.127,646.436L209.69,646.307L208.585,643.978L208.424,643.451L209.179,643.441L209.164,641.896L207.743,641.916L207.279,641.584L203.207,641.597L203.102,641.009L202.589,640.802L202.067,641.145L201.971,641.887L200.295,641.871L198.297,640.916L198.218,639.96L197.23,640.155L193.755,638.623L192.989,638.812L192.583,639.312L191.364,641.099L191.133,641.975L189.868,643.181L189.562,643.83L188.594,644.293L187.983,644.21L186.24,642.652L185.257,641.292L185.49,641.196L185.34,640.606L185.057,640.41L184.555,640.6L183.173,639.374L181.94,638.82L181.477,638.128L181.559,637.584L182.418,636.518L180.947,635.145L182.536,633.739L183.699,631.379L183.584,630.455L181.747,628.212L181.043,626.053L180.598,625.616L179.729,625.417L178.195,625.982L176.429,624.96L175.353,623.829L173.379,623.306L173.325,622.485L173.9,620.592L173.484,619.577L173.775,618.912L173.386,618.347L173.219,616.365L172.228,616.357L172.089,616.11L170.966,615.851L167.769,613.516L167.753,612.887L166.597,612.721L166.039,610.644L167.082,609.702L166.71,608.501L167.028,603.859L170.044,597.054L172.761,596.996L175,596.403L175.823,592.541L176.122,592.132L182.579,592.411L182.972,590.456L183.217,585.912L182.11,578.613L182.948,573.476L183.798,573.23L184.487,571.622L184.487,571.622L185.136,571.381L184.391,570.45L184.695,569.613L185.535,569.52L188.41,570.398L189.173,569.788L189.078,567.142L195.792,561.718L196.223,562.198L198.129,561.131L197.09,560.752L195.824,559.319L195.5,556.864L195.566,554.313L195.566,554.313L196.417,554.342L200.579,550.844L205.564,549.744L205.783,548.183L206.398,546.543L208.422,542.229z"/>
    </g>
</svg>