<?xml version="1.0" encoding="utf-8"?>
<svg xmlns="http://www.w3.org/2000/svg" viewBox="20 569 300 95" width="800px" height="230px">
    <defs>
        <style type="text/css">
            .land {
                fill: #FFE2E2;
            }
        </style>

    </defs>
    <g>
        <path id="SN-KL" title="Kaolack" class="land" d="M184.487,571.622L183.798,573.23L182.948,573.476L182.11,578.613L183.217,585.912L182.972,590.456L182.579,592.411L176.122,592.132L175.823,592.541L175,596.403L172.761,596.996L170.044,597.054L167.028,603.859L166.71,608.501L167.082,609.702L166.039,610.644L166.597,612.721L167.753,612.887L167.769,613.516L170.966,615.851L172.089,616.11L172.228,616.357L173.219,616.365L173.386,618.347L173.775,618.912L173.484,619.577L173.9,620.592L173.325,622.485L173.379,623.306L175.353,623.829L176.429,624.96L178.195,625.982L179.729,625.417L180.598,625.616L181.043,626.053L181.747,628.212L183.584,630.455L183.699,631.379L182.536,633.739L180.947,635.145L182.418,636.518L181.559,637.584L181.477,638.128L181.94,638.82L183.173,639.374L184.555,640.6L185.057,640.41L185.34,640.606L185.49,641.196L185.257,641.292L186.24,642.652L187.983,644.21L188.594,644.293L189.562,643.83L189.868,643.181L191.133,641.975L191.364,641.099L192.583,639.312L192.989,638.812L193.755,638.623L197.23,640.155L198.218,639.96L198.297,640.916L200.295,641.871L201.971,641.887L202.067,641.145L202.589,640.802L203.102,641.009L203.207,641.597L207.279,641.584L207.743,641.916L209.164,641.896L209.179,643.441L208.424,643.451L208.585,643.978L209.69,646.307L211.127,646.436L211.128,647.093L211.128,647.093L211.13,647.828L210.086,647.684L208.878,649.028L206.818,652.568L205.434,656.935L204.316,662.887L138.351,662.809L138.351,662.809L139.153,662.124L139.438,661.291L138.32,660.642L138.218,659.964L139.631,659.258L139.889,657.957L138.594,657.796L138.702,656.888L137.361,655.605L136.957,654.618L136.533,652.96L136.044,647.585L135.817,647.283L135.327,647.295L134.772,647.847L130.478,644.032L130.037,643.131L128.064,642.024L128.727,638.56L127.859,637.587L128.322,637.363L130.162,637.483L131.287,635.465L131.683,635.255L131.692,634.254L132.454,632.252L132.988,631.902L132.458,626.49L131.754,625.472L131.821,623.91L130.353,623.781L130.676,622.204L129.101,621.723L126.426,621.947L126.255,622.167L125.212,621.475L125.092,621.118L125.324,619.907L126.103,619.069L126.407,618.07L129.163,616.285L129.681,615.463L129.777,612.851L129.354,610.168L126.211,607.508L124.059,606.711L122.391,605.413L119.433,605.201L117.715,605.767L115.692,605.642L114.79,605.889L114.259,605.177L114.983,605.188L115.19,604.206L115.677,604.44L115.868,603.733L116.816,604.189L116.959,603.807L116.559,603.851L116.083,603.242L116.229,602.898L116.873,602.982L117.379,602.559L115.938,601.528L116.205,600.002L115.812,598.634L116.267,598.548L116.471,599.083L116.888,599.085L117.156,598.756L117.268,598.172L116.404,597.616L117.362,597.277L117.143,596.835L117.444,596.643L118.046,594.502L118.522,594.07L120.642,594.34L120.799,593.994L122.121,593.392L122.348,592.621L123.453,592.154L124.065,591.481L124.46,591.609L124.875,590.969L126.189,591.701L126.623,591.48L127.629,590.127L127.407,589.176L128.198,588.646L128.069,588.369L133.076,588.862L133.593,586.714L134.39,585.604L135.36,585.06L137.707,584.834L140.09,585.089L142.11,584.42L143.571,583.385L146.385,583.889L147.415,584.451L148.524,584.393L150.271,583.659L150.77,583.198L150.608,582.34L151.988,580.873L152.098,579.14L153.678,578.864L154.483,578.003L154.693,576.892L156.398,575.398L157.714,575.727L158.66,576.442L159.256,577.365L159.834,577.616L160.417,577.227L161.089,575.9L162.396,576.062L162.792,576.731L162.748,583.337L171.303,583.524L171.874,583.441L173.332,578.326L174.242,576.621L176.242,576.511L177.522,575.959L178.321,575.008L178.775,572.492L179.332,571.728L179.502,570.93L180.317,570.548L182.75,570.481z"/>
    </g>
</svg>