<?xml version="1.0" encoding="utf-8"?>
<svg xmlns="http://www.w3.org/2000/svg" viewBox="160 664 340 90" width="800px" height="230px">
    <defs>
        <style type="text/css">
            .land {
                fill: #FFE2E2;
            }
        </style>

    </defs>
    <g>
        <path id="SN-KD" title="Kolda" class="land" d="M264.066,677.539L265.659,677.48L267.718,679.302L270.44,680.502L272.275,680.634L274.752,680.357L275.896,682.661L277.734,684.717L280.076,686.107L284.685,688.091L285.86,688.09L286.177,687.853L288.799,688.263L291.619,687.378L294.365,685.876L296.745,689.419L298.124,690.796L299.734,691.553L304.313,692.129L306.549,695.139L308.189,696.38L310.403,697.827L314.398,699.283L315.376,699.5L319.386,698.486L322.729,698.526L323.785,698.258L324.558,699.615L326.572,700.735L328.953,700.517L331.14,699.605L334.48,700.61L335.97,699.936L336.682,699.985L337.982,698.453L338.438,697.416L338.452,695.515L337.739,694.665L338.515,694.104L339.579,693.746L340.167,694.408L341.615,694.12L342.397,693.04L343.342,693L343.272,693.682L345.805,694.027L345.838,693.339L349.313,693.078L354.559,690.039L360.136,690.615L362.965,690.153L365.662,688.818L367.071,687.502L369.486,683.665L370.233,680.75L370.28,678.253L369.926,677.686L367.878,676.144L365.911,672.445L363.61,670.923L363.61,670.923L364.187,670.85L366.309,671.583L366.251,669.672L367.345,667.288L369.452,667.74L370.666,667.493L370.923,668.218L369.889,669.687L369.796,671.531L368.789,673.852L369.213,675.212L370.095,675.355L372.379,673.403L375.523,674.184L377.846,675.454L377.281,676.664L375.431,677.612L373.876,678.798L373.896,679.763L374.605,680.525L374.524,682.059L373.79,683.232L372.283,684.591L372.799,684.955L375.124,685.014L380.145,683.889L381.811,683.805L382.156,684.068L382.085,685.047L380.942,685.822L379.151,688.084L379.576,688.92L382.112,688.059L382.969,687.909L383.15,688.158L381.782,691.519L380.575,692.727L380.688,693.282L381.814,694.57L384.564,694.148L385.584,695.024L384.868,696.838L385.011,697.604L385.787,698.038L386.584,698.035L387.236,697.892L387.702,697.421L388.104,697.765L388.146,698.329L388.585,698.358L388.458,698.653L388.931,699.415L388.46,699.213L388.307,700.05L388.691,699.892L389.208,700.156L389.206,700.685L389.666,700.97L389.249,701.135L389.262,702.223L389.018,701.605L388.496,701.639L387.9,702.134L388.839,702.317L388.983,702.596L388.604,703.058L388.886,703.286L388.611,703.947L388.074,703.959L387.832,704.289L388.2,704.45L387.65,704.974L387.848,705.339L388.477,705.239L388.491,705.542L388.776,705.58L388.687,706.03L388.325,705.76L388.172,705.91L388.32,706.368L388.962,706.504L389.172,706.914L388.781,707.338L388.165,706.855L387.938,707.632L388.563,707.661L388.666,708.014L387.801,708.284L387.715,708.951L387.987,709.102L388.267,708.852L388.859,709.268L389.064,709.032L390.035,709.422L389.901,709.733L389.538,709.608L389.43,709.91L389.755,710.239L389.451,710.284L389.62,710.586L389.369,710.844L389.735,711.243L390.061,711.146L390.384,711.83L390.388,711.412L390.928,711.443L391.114,711.918L390.766,712.298L391.266,712.896L390.98,713.108L391.036,713.852L391.786,712.894L392.533,713.036L392.444,713.357L391.903,713.152L391.887,713.565L392.28,713.787L392.045,714.309L391.605,714.521L391.622,715.482L391.93,715.856L392.398,716.028L392.458,715.652L393.139,715.928L393.326,715.66L393.155,715.29L392.982,714.92L393.66,714.725L394.606,715.615L393.623,716.479L393.882,716.631L393.711,717.055L393.973,717.16L394.594,716.657L395.299,717.468L395.298,717.712L395.107,717.817L394.792,718.174L395.72,718.514L395.796,718.891L396.198,718.419L396.266,719.016L396.52,718.705L397.407,718.556L397.502,719.665L396.384,720.044L396.862,720.391L396.287,720.508L396.023,721.767L396.385,721.62L396.586,722.084L397.811,721.022L398.93,721.998L398.61,723.023L397.652,723.58L398.514,724.545L398.431,725.315L398.924,725.503L399.479,725.135L399.482,725.806L398.179,726.093L397.403,727.089L397.979,728.022L399.042,728.077L398.844,727.615L399.186,727.557L399.728,728.307L399.048,729.403L398.245,729.293L398.796,730.24L398.876,731.492L399.857,731.665L401.18,732.87L402.136,732.718L402.724,732.922L402.233,734.284L402.74,734.757L401.751,734.785L401.615,735.163L403.643,736.78L403.929,737.6L403.363,738.049L402.641,737.487L401.82,737.293L401.235,737.288L401.107,737.647L402.147,738.091L402.346,739.138L400.989,740.058L401.349,742.018L402.658,742.121L402.897,742.688L401.884,744.483L402.153,744.712L402.848,744.125L403.22,745.565L402.805,746.307L403.245,747.577L402.548,747.448L402.138,748.073L402.377,748.634L402.9,748.837L403.266,749.836L402.813,750.473L402.514,750.502L402.3,750.131L401.854,750.239L402.592,750.714L402.896,751.841L402.467,751.936L402.126,752.99L402.917,752.751L403.848,751.702L404.662,751.891L405.005,752.252L405.527,751.792L405.32,752.551L404.56,753.013L404.785,753.157L405.085,752.802L405.507,752.793L404.992,753.49L405.55,753.398L406.06,753.784L405.907,754.73L406.685,755.28L408.086,754.522L409.165,754.915L409.809,754.843L410.065,754.072L410.736,753.812L410.894,753.284L411.725,752.996L413.602,753.488L413.602,753.488L412.846,756.661L399.002,755.108L349.821,755.188L327.101,754.721L326.793,755.104L317.521,754.972L317.519,754.58L303.685,754.492L277.329,754.813L239.109,754.091L239.109,754.091L237.325,752.94L236.724,750.555L235.708,748.71L237.563,745.489L237.494,744.168L238.47,743.524L238.623,742.333L239.653,741.12L239.602,734.334L239.986,732.725L235.727,728.158L234.619,725.605L234.541,724.9L235.618,722.895L235.262,720.958L232.616,719.168L231.966,719.125L228.814,717.422L226.766,714.311L226.59,709L226.219,708.411L226.017,707.119L224.374,706.965L224.127,703.831L222.062,703.143L219.016,703.231L219.039,702.385L218.243,701.94L216.476,700.098L216.11,695.461L217.68,692.698L217.601,686.465L217.945,686.195L217.945,686.195L221.87,685.479L223.48,684.496L228.56,680.296L229.753,677.531L231.699,669.182L232.732,668.711L236.921,664.853L237.21,663.84L242.232,662.106L243.593,665.439L244.409,666.593L247.008,669.457L249.799,671.929L253.594,674.192L258.259,676.371L261.028,677.329z"/>
    </g>
</svg>