<?xml version="1.0" encoding="utf-8"?>
<svg xmlns="http://www.w3.org/2000/svg" viewBox="0 397 380 165" width="800px" height="230px">
    <defs>
        <style type="text/css">
            .land {
                fill: #FFE2E2;
            }
        </style>

    </defs>
    <g>
        <path id="SN-LG" title="Louga" class="land" d="M291.04,425.25l-0.472,0.03l-1.039,1.228l-3.966,-0.593l0.367,-3.041l-0.868,-1.8l-2.84,3.105l-5.811,3.066l-1.832,1.949l-2.702,1.502l-2.428,0.891l-2.632,-4.43l-2.317,-1.374l-7.005,-7.293l-3.58,2.395l-12.749,1.08l-2.946,2.117l-1.157,-0.116l-5.229,-1.629L231,421.305l-1.309,-3.501l-0.659,-0.243l-1.88,-1.796l-2.91,-1.187l-1.195,-1.007l-3.429,1.601l-3.139,0.253l-2.415,-2.542l-1.227,2.08l-0.112,1.883l0.692,1.811l-2.382,0.041l-2.633,1.396l1.656,4.499l-0.288,3.137l-1.165,-0.568l-1.998,-0.419l-5.195,2.088l-1.909,0.139l-2.335,-0.455l1.092,-2.053l0.266,-1.147l-1.47,-2.167l-7.488,-3.857l-11.076,-10.155l-8.732,-9.661l-0.811,0.209l-3.803,2.683l-4.741,4.237l-0.812,1.481l-3.376,1.347l-8.093,4.048l-2.021,0.607l-3.944,2.222l-2.242,0.466l-1.397,0.682l-0.518,0.732l0.175,0.335l-2.366,3.576l-5.186,4.153l-3.232,1.896l-0.867,1.271l-0.397,1.521l-0.547,0.59l-0.243,-0.33l-1.587,1.755l-2.687,1.011l-0.875,1.612l-0.769,0.104l-0.56,-0.917l-0.633,0.061l-0.746,0.562l-1.995,0.229l-3.62,-0.018l-3.434,-0.561l-1.587,0.155l-2.832,1.03l-3.159,2.284l-1.235,0.204l-0.237,1.013l-0.249,-0.06l0,0l-0.768,2.279l0.274,0.535l-0.521,0.739l-0.027,0.651l-4.195,8.66l-4.688,8.177L80.81,473.52l0,0l2.822,1.716l0.66,0.988l0.047,1.089l-2.967,4.292l-1.83,4.987l-0.582,2.922l0.306,0.398l2.608,0.963l1.248,1.73l1.793,0.983l1.392,1.67l3.31,2.155l0.392,0.718l-0.021,1.201l1.126,0.424l0.674,1.357l-0.093,3.272l-0.681,1.113l0.369,0.063l1.628,-1.442l0.637,-1.152l2.351,-2.413l3.838,-7.436l1.131,-0.243l0.564,-0.486l0.21,-0.942l-0.382,-0.326l1.401,-2.185l4.985,-5.165l0.569,0.313l2.65,2.883l0.97,0.422l2.618,0.493l2.417,-0.416l0.832,0.304l1.488,2.45l-0.08,0.803l-1.024,1.371l1.241,1.668l0.933,0.673l0.938,0.253l0.397,-0.34l0.371,-1.73l1.126,-0.396l1.003,0.412l1.237,1.565l0.422,1.816l-0.178,1.838l0.264,1.731l1.197,2.384l0.988,0.961l0.739,1.419l0.112,2.952l3.91,3.175l0.238,4.872l1.583,4.027l0.282,2.956l-0.151,1.401l0,0l2.456,-0.023l3.048,0.528l2.132,-0.416l1.695,0.13l1.911,-0.918l1.805,-0.453l2.67,0.861l2.022,1.057l0.676,-1.497l0.692,-0.648l3.841,0.165l0.17,-0.539l1.366,-1.081l1.148,-0.332l1.705,0.351l0.087,0.398l-0.343,0.321l6.167,-0.918l0.205,0.542l1.163,1.139l3.894,1.746l1.165,1.525l0.345,1.341l1.294,2.242l1.261,1.023l1.805,-0.166l1.551,-0.873l2.435,-3.345l0.776,-0.437l0.686,0.043l0.573,0.342l0.349,1.181l1.903,2.06l0.785,1.393l0.018,0.821l-0.515,0.91l2.437,1.114l1.623,0.422l-0.403,0.444l5.955,3.67l4.17,-1.512l1.243,-0.148l2.12,0.467l2.973,1.159l0.176,0.649l-0.244,1.761l1.441,0.823l0,0l1.671,-0.219l2.984,2.392l2.333,3.724l2.828,3.255l2.235,2.204l4.812,2.897l22.615,4.25l0.658,-2.544l10.538,-6.805l4.03,4.749l1.881,0.003l0,0l2.664,-3.183l0.577,-1.363l0.705,-4.315l0.584,-1.611l0.732,-0.739l2.672,-1.618l0.421,-7.032l-0.128,-2.402l-0.76,-4.344l-0.301,-6.022l-2.276,-6.696l-0.393,-0.523l-0.781,-6.39l0.677,-0.709l6.648,-1.504l0.467,-0.725l8.11,-0.013l3.841,-0.334l0.281,-0.785l4.617,-5.623l2.025,-0.865l1.883,-6.606l-0.109,-3.739l3.798,-5.485l-4.097,-0.082l-6.708,1.606l-1.107,0.054l-12.567,-6.625l-3.169,-0.884l-1.016,-0.925l-0.274,-1.199l-0.055,-0.808l1.63,0.019l2.344,-2.492l1.104,-1.75l-0.909,-2.443l0.054,-3.193l-1.567,-0.48l2.026,-6.354l2.133,-5.281l0.526,-0.694l1.67,-1.087l2.566,-1.004l-0.556,-4.588l13.229,-8.91L291.04,425.25z"/>
    </g>
</svg>