<?xml version="1.0" encoding="utf-8"?>
<svg xmlns="http://www.w3.org/2000/svg" viewBox="160 400 450 185" width="800px" height="230px">
    <defs>
        <style type="text/css">
            .land {
                fill: #FFE2E2;
            }
        </style>

    </defs>
    <g>
        <path id="SN-MT" title="Matam" class="land" d="M400.844,405.389L399.156,405.896L398.204,406.646L397.699,407.457L397.876,408.986L399.167,410.249L400.576,410.073L401.486,408.405L402.202,407.636L403.008,407.376L403.258,407.511L403.5,408.752L404.527,409.946L410.256,412.206L411.396,413.041L411.151,417.115L412.439,418.686L412.244,420.4L412.777,422.328L413.687,423.901L414.658,424.888L415.997,425.666L417.002,425.757L417.507,426.132L417.456,427.049L416.4,428.047L415.918,428.9L415.938,429.571L416.471,430.195L418.146,431.032L418.812,431.735L418.964,432.804L418.609,435.046L419.04,436.98L422.165,439.803L422.22,440.265L421.864,440.553L420.763,439.918L420.014,440.103L419.563,441.061L419.589,442.285L427.88,449.541L427.517,450.654L426.771,451.688L425.804,451.844L424.141,451.327L423.496,451.985L423.554,453.625L424.84,455.552L425.881,458.012L426.448,458.338L427.252,458.301L428.584,456.855L429.998,456.678L434.294,458.922L439.781,461.154L439.734,461.512L439.087,462.047L439.786,463.017L439.893,464.208L438.584,466.796L438.062,468.854L438.188,469.635L438.542,469.911L440.729,470.584L441.921,471.319L443.704,471.702L446.426,471.418L448.382,469.944L450.181,469.896L451.488,469.3L451.933,469.386L452.33,471.91L452.061,474.023L452.228,474.886L453.144,475.34L454.979,474.905L455.606,475.028L455.778,475.336L455.434,476.23L453.631,477.804L453.495,482.918L453.987,484.023L455.941,485.738L457.434,486.077L459.308,486.052L462.841,487.946L463.508,488.573L464.676,490.975L464.654,492.607L463.27,494.441L461.806,494.02L460.635,492.985L459.096,492.941L458.412,493.705L458.684,495.113L459.55,495.961L461.911,497.314L462.479,498.183L462.742,499.329L463.295,499.961L464.351,499.936L465.951,498.546L467.381,498.392L468.513,498.963L469.488,500.723L468.748,503.432L469.144,504.934L470.232,505.633L472.557,506.379L475.446,509.153L478.131,510.235L478.587,511.456L478.85,511.699L479.215,511.555L479.215,511.555L482.861,516.586L483.295,516.533L483.785,517.889L485.442,520.222L485.779,521.922L486.494,522.358L485.977,523.123L486.269,523.826L486.978,525.104L487.505,524.829L487.724,525.747L488.227,525.977L487.382,527.392L487.791,527.841L487.529,528.188L487.79,529.137L488.923,530.999L482.709,550.269L476.06,559.472L468.616,562.826L453.28,565.073L448.511,563.621L444.82,562.84L424.346,559.691L415.576,566.483L413.792,567.371L412.195,569.104L398.766,579.521L397.794,580.022L387.549,580.384L371.086,580.003L361.381,564.549L353.706,563.157L342.114,564.337L338.098,569.131L330.483,566.565L327.862,566.215L328.107,565.771L322.258,562.363L313.557,560.729L311.188,558.429L309.544,558.803L307.663,559.882L301.591,562.431L300.253,563.149L299.267,564.644L295.585,564.853L293.277,563.431L290.696,563.439L290.696,563.439L290.662,563.005L288.297,562.147L287.424,562.104L286.945,562.644L286.126,562.739L285.74,562.577L285.524,561.387L281.102,561.322L279.395,561.592L278.441,562.576L276.059,562.574L270.394,558.984L268.744,558.479L265.855,555.262L265.855,555.262L268.519,552.079L269.096,550.716L269.801,546.4L270.385,544.789L271.117,544.05L273.79,542.432L274.21,535.399L274.083,532.997L273.323,528.653L273.022,522.631L270.746,515.935L270.353,515.411L269.572,509.021L270.249,508.313L276.897,506.809L277.364,506.084L285.474,506.071L289.315,505.737L289.596,504.952L294.213,499.329L296.238,498.464L298.122,491.857L298.013,488.118L301.811,482.633L297.714,482.551L291.006,484.157L289.899,484.211L277.333,477.586L274.163,476.702L273.147,475.777L272.874,474.578L272.818,473.771L274.448,473.789L276.792,471.297L277.897,469.547L276.988,467.104L277.042,463.91L275.476,463.43L277.501,457.075L279.635,451.794L280.161,451.1L281.832,450.013L284.398,449.009L283.842,444.421L297.07,435.511L297.07,435.511L300.756,440.52L300.367,441.123L300.035,443.308L300.878,447.568L300.494,449.425L301.311,450.056L303.502,450.938L304.888,452.908L305.1,454.234L309.531,454.264L309.857,454.96L310.359,455.152L309.87,457.368L309.423,457.347L309.417,458.698L309.18,458.873L308.573,461.607L306.003,461.611L306.431,469.313L306.005,474.904L310.336,480.177L309.675,481.8L310.063,482.482L314.551,481.418L324.568,481.359L330.13,478.262L331.751,474.252L331.439,473.01L329.857,473.004L329.936,471.616L328.528,470.248L328.705,468.593L332.457,467.901L331.814,464.101L347.288,464.661L349.97,453.044L351.767,440.416L353.969,429.015L356.293,428.11L360.825,423.365L361.882,422.942L362.572,421.536L364.414,419.608L364.659,418.344L365.098,417.72L367.146,416.635L375.254,413.758L377.009,405.918L377.58,404.62L377.58,404.62L379.091,407.103L380.837,408.641L381.465,408.842L383.142,407.379L386.157,407.535L390.986,405.086L392.49,404.735L394.262,404.877L396.88,405.775L397.534,405.566L400.272,403.449L400.954,403.681L401.532,404.765L401.426,405.106z"/>
    </g>
</svg>