<?xml version="1.0" encoding="utf-8"?>
<svg xmlns="http://www.w3.org/2000/svg" viewBox="65 681 300 100" width="800px" height="230px">
    <defs>
        <style type="text/css">
            .land {
                fill: #FFE2E2;
            }
        </style>

    </defs>
    <g>
        <path id="SN-SE" title="Sédhiou" class="land" d="M202.913,682.848L206.669,684.597L207.856,684.604L213.551,686.649L217.945,686.195L217.945,686.195L217.601,686.465L217.68,692.698L216.11,695.461L216.476,700.098L218.243,701.94L219.039,702.385L219.016,703.231L222.062,703.143L224.127,703.831L224.374,706.965L226.017,707.119L226.219,708.411L226.59,709L226.766,714.311L228.814,717.422L231.966,719.125L232.616,719.168L235.262,720.958L235.618,722.895L234.541,724.9L234.619,725.605L235.727,728.158L239.986,732.725L239.602,734.334L239.653,741.12L238.623,742.333L238.47,743.524L237.494,744.168L237.563,745.489L235.708,748.71L236.724,750.555L237.325,752.94L239.109,754.091L239.109,754.091L238.727,754.563L237.967,754.583L235.995,754.142L233.878,754.191L227.781,756.707L224.436,758.807L217.926,761.327L214.777,764.863L210.813,767.848L208.251,769.368L192.789,775.962L192.859,776.324L189.384,778.053L189.304,777.801L183.81,780.286L178.273,779.354L163.384,777.678L163.384,777.678L163.292,776.479L162.83,776.047L161.629,775.602L160.049,776.333L159.656,775.447L159.509,774.651L160.332,774.155L160.066,773.226L160.137,771.677L159.416,770.546L157.221,769.293L156.925,768.424L157.059,767.041L155.865,765.311L155.78,764.599L156.539,763.668L156.567,763.143L156.263,762.961L155.653,760.097L153.961,757.917L152.865,757.192L152.462,756.979L150.64,757.115L150.167,754.41L151.211,750.873L150.412,749.839L150.048,747.849L150.908,746.941L152.658,746.083L153.321,743.501L152.155,741.59L152.061,740.109L154.335,738.238L154.959,736.698L154.378,734.842L155.056,733.868L154.983,733.327L153.827,733.028L153.825,732.639L154.257,732.326L153.822,731.202L153.576,730.929L152.721,730.837L153.074,730.133L153.593,729.88L153.53,728.59L154.066,727.645L155.144,727.371L155.546,726.762L156.126,724.646L157.105,724.455L157.653,724.02L158.777,722.395L159.483,720.678L160.045,718.093L162.212,715.184L162.401,714.017L162.143,713.102L160.99,712.886L160.17,713.078L159.485,712.742L158.77,711.116L158.974,710.483L160.118,709.12L161.725,707.819L162.478,707.877L162.657,707.65L162.913,705.571L162.913,705.571L162.826,704.186L171.802,704.2L171.846,687.381L179.252,687.011L181.643,686.31L183.857,685.106L186.349,686.007L193.267,687.191L196.038,686.221L197.903,684.664L197.805,684.303L199.652,682.921L202.479,682.637z"/>
    </g>
</svg>