<?xml version="1.0" encoding="utf-8"?>
<svg xmlns="http://www.w3.org/2000/svg" viewBox="10 347 450 137" width="800px" height="230px">
    <defs>
        <style type="text/css">
            .land {
                fill: #FFE2E2;
            }
        </style>

    </defs>
    <g>
        <path id="SN-SL" title="Saint-Louis" class="land saint-louis" d="M256.93,353.988L257.769,353.853L259.661,352.231L259.885,353.611L260.553,354.058L261.127,354.058L261.791,353.266L262.277,351.39L263.103,351.025L263.496,351.286L264.78,353.496L266.614,353.079L267.957,353.664L268.539,353.105L268.756,351.96L269.455,351.672L271.769,354.186L272.214,353.988L273.538,351.724L274.193,351.501L275.354,352.457L275.439,354.404L277.11,355.264L277.318,355.011L276.891,353.984L277.936,353.772L277.866,352.547L278.075,352.386L279.245,353.239L281.627,352.521L285.957,352.102L286.529,352.588L286.469,353.486L285.45,353.775L285.374,354.208L286.657,355.446L287.623,354.333L288.799,354.22L289.52,354.491L290.184,355.397L290.99,354.76L291.992,355.132L293.227,354.73L294.809,355.419L295.233,354.71L295.62,352.859L295.984,352.707L297.459,354.189L300.602,355.745L301.612,355.452L302.725,354.498L305.524,354.779L306.545,353.111L308.181,351.812L308.828,352.157L309.151,353.452L309.628,353.848L311.943,353.343L313.576,353.752L316.003,352.918L316.888,353.044L317.426,354.077L317.333,357.063L316.688,359.466L317.146,360.671L317.75,360.773L318.799,360.216L320.256,360.172L321.151,358.878L322.141,358.73L323.068,359.59L322.481,361.986L323.951,365.166L324.383,365.117L324.448,363.724L325.326,362.712L327.952,362.903L329.034,363.813L329.972,364.178L329.529,365.331L329.899,366.41L333.216,368.101L334.733,370.254L335.439,370.345L336.09,369.681L336.574,369.764L335.803,371.123L336.051,372.127L337.946,372.712L338.721,373.379L339.187,374.816L342.34,376.707L343.17,378.031L345.663,380.495L346.635,382.513L349.707,382.997L350.824,383.817L352.839,384.665L353.916,386.276L353.858,386.997L353.545,387.187L352.055,386.725L350.976,386.954L350.604,387.414L350.968,390.369L353.625,390.371L354.456,390.978L352.818,392.798L352.265,395.645L353.058,395.685L355.388,394.502L356.542,395.284L357.541,394.993L357.911,397.884L358.575,398.647L359.407,399.024L361.082,398.19L361.905,398.5L362.623,399.256L362.776,399.864L361.852,401.213L361.746,402.826L362.759,404.175L362.874,405.179L363.935,405.481L364.579,407.534L365.146,407.578L366.829,405.536L369.622,403.947L372.088,404.06L374.646,403.159L377.177,400.203L378.09,399.912L378.889,400.271L379.117,401.223L378.906,401.96L377.479,403.437L377.58,404.62L377.58,404.62L377.009,405.918L375.254,413.758L367.146,416.635L365.098,417.72L364.659,418.344L364.414,419.608L362.572,421.536L361.882,422.942L360.825,423.365L356.293,428.11L353.969,429.015L351.767,440.416L349.97,453.044L347.288,464.661L331.814,464.101L332.457,467.901L328.705,468.593L328.528,470.248L329.936,471.616L329.857,473.004L331.439,473.01L331.751,474.252L330.13,478.262L324.568,481.359L314.551,481.418L310.063,482.482L309.675,481.8L310.336,480.177L306.005,474.904L306.431,469.313L306.003,461.611L308.573,461.607L309.18,458.873L309.417,458.698L309.423,457.347L309.87,457.368L310.359,455.152L309.857,454.96L309.531,454.264L305.1,454.234L304.888,452.908L303.502,450.938L301.311,450.056L300.494,449.425L300.878,447.568L300.035,443.308L300.367,441.123L300.756,440.52L297.07,435.511L297.07,435.511L291.04,425.25L290.568,425.28L289.529,426.508L285.563,425.915L285.93,422.874L285.062,421.074L282.222,424.18L276.411,427.246L274.579,429.195L271.876,430.697L269.449,431.588L266.817,427.158L264.5,425.784L257.495,418.491L253.915,420.886L241.166,421.966L238.22,424.083L237.063,423.967L231.833,422.338L231,421.305L229.691,417.804L229.032,417.561L227.152,415.765L224.243,414.578L223.048,413.571L219.619,415.172L216.479,415.425L214.064,412.883L212.837,414.963L212.725,416.846L213.417,418.656L211.035,418.697L208.402,420.094L210.058,424.593L209.77,427.729L208.605,427.161L206.608,426.742L201.413,428.83L199.503,428.969L197.168,428.514L198.26,426.461L198.526,425.313L197.056,423.146L189.568,419.289L178.492,409.134L169.76,399.473L168.949,399.682L165.146,402.364L160.405,406.602L159.593,408.083L156.217,409.43L148.125,413.478L146.104,414.085L142.159,416.307L139.917,416.772L138.521,417.454L138.003,418.187L138.178,418.521L135.812,422.098L130.626,426.251L127.394,428.147L126.526,429.419L126.129,430.94L125.582,431.53L125.339,431.2L123.752,432.955L121.065,433.966L120.19,435.578L119.421,435.683L118.862,434.766L118.229,434.826L117.483,435.388L115.488,435.617L111.868,435.6L108.435,435.039L106.848,435.194L104.016,436.225L100.857,438.509L99.623,438.713L99.385,439.726L99.136,439.666L99.136,439.666L100.644,433.762L101.604,422.301L101.979,412.183L104.596,412.132L105.712,410.374L106.36,410.053L106.709,408.974L108.065,408.232L108.128,407.563L106.929,406.533L106.775,405.943L107.26,404.778L106.963,402.963L107.215,402.515L107.01,399.727L108.177,397.697L109.227,396.572L110.977,395.881L112.691,396.606L113.762,396.269L115.163,394.588L116.067,391.909L116.967,391.137L117.045,390.051L115.683,388.065L115.859,386.418L116.821,384.749L117.448,384.252L118.357,384.046L119.165,382.931L119.374,382.225L119.091,380.79L119.242,377.979L119.98,377.051L121.26,376.848L121.41,376.585L121.53,372.931L121.829,371.49L122.592,370.407L123.836,369.813L124.027,366.615L124.652,365.815L125.947,364.964L128.24,364.322L129.651,364.668L131.205,365.488L133.498,365.337L134.945,364.544L136.338,362.917L137.342,362.222L138.805,361.763L139.129,361.946L141.131,361.639L142.052,362.136L142.429,362.692L142.62,363.388L142.474,365.059L144.808,366.591L146.932,369.54L148.659,369.349L150.891,367.521L152.082,367.058L153.674,367.473L154.804,368.249L155.146,368.843L155.572,368.932L156.176,366.585L158.079,363.189L161.377,361.04L161.499,361.979L160.941,364.194L159.772,366.433L160.859,365.922L162.929,365.599L165.29,365.922L166.149,366.678L166.265,368.207L168.728,366.826L169.994,366.451L170.972,366.485L173.841,367.798L178.915,368.5L181.923,370.244L183.024,369.368L186.869,369.003L188.527,368.311L189.034,367.414L188.609,365.508L189.472,364.426L190.747,364.601L191.927,364.376L194.25,365.802L195.602,366.104L197.244,365.948L199.865,365.132L200.738,364.387L199.65,362.694L199.7,361.65L200.077,360.935L201.205,360.003L203.434,359.023L203.834,358.401L204.67,357.905L206.452,358.192L207.731,359.25L208.432,360.526L208.736,362.386L209.18,362.918L211.595,363.576L213.971,362.445L215.406,361.209L217.533,361.186L220.502,359.814L224.237,360.541L225.684,360.479L227.185,361.865L227.864,362.054L228.714,362.01L231.081,360.39L233.121,359.543L234.053,358.375L235.118,358.396L238.328,359.48L239.635,359.281L242.167,357.233L242.767,356.376L242.732,355.509L241.678,353.967L239.838,353.733L239.265,353.311L239.347,351.612L241.389,349.248L242.491,349.314L243.351,349.74L243.924,350.591L244.672,352.747L245.655,354.278L245.945,354.327L246.402,353.833L247.745,354.035L250.803,352.738L251.221,351.82L251.417,348.66L252.062,347.851L253.081,347.896L255.683,349.295L255.83,350.201L255.496,351.925L256.235,353.375z"/>
    </g>
</svg>