<?xml version="1.0" encoding="utf-8"?>
<svg xmlns="http://www.w3.org/2000/svg" viewBox="70 472 40 145" width="800px" height="230px">
    <defs>
        <style type="text/css">
            .land {
                fill: #FFE2E2;
            }
        </style>

    </defs>
    <g>
        <path id="SN-TH" title="Thiès" class="land" d="M80.81,473.52L83.632,475.235L84.292,476.224L84.339,477.313L81.372,481.604L79.542,486.592L78.96,489.514L79.266,489.912L81.875,490.875L83.122,492.605L84.915,493.589L86.307,495.259L89.617,497.414L90.009,498.132L89.987,499.333L91.113,499.757L91.788,501.114L91.694,504.387L91.014,505.5L91.382,505.563L93.011,504.12L93.648,502.968L95.999,500.555L99.836,493.119L100.967,492.876L101.532,492.39L101.742,491.447L101.359,491.121L102.76,488.937L107.745,483.771L108.314,484.085L110.964,486.968L111.935,487.39L114.552,487.883L116.97,487.467L117.801,487.771L119.289,490.221L119.209,491.023L118.185,492.395L119.426,494.063L120.358,494.735L121.297,494.988L121.694,494.648L122.065,492.918L123.191,492.522L124.194,492.935L125.432,494.5L125.854,496.316L125.676,498.154L125.939,499.886L127.136,502.27L128.125,503.23L128.863,504.649L128.976,507.602L132.885,510.776L133.124,515.648L134.706,519.676L134.988,522.632L134.836,524.033L134.836,524.033L130.784,525.133L129.858,525.031L129.502,524.576L128.399,524.947L128.055,523.446L128.36,522.979L127.614,522.467L124.981,521.296L120.476,520.084L120.497,519.266L119.874,518.717L119.162,518.764L118.747,519.287L116.816,518.687L117.112,517.792L116.792,517.522L116.087,518.54L114.641,518.193L114.065,518.36L113.765,518.038L108.644,517.796L105.793,518.616L103.321,520.237L100.192,520.4L100.294,521.092L99.768,521.305L93.457,523.227L89.121,524.145L87.369,525.013L85.178,527.017L84.656,527.645L87.711,531.564L89.302,532.862L90.416,534.356L90.751,536.389L88.866,538.06L88.317,539.346L93.471,543.692L92.979,545.701L92.592,546.192L92.68,547.028L93.133,547.177L92.571,549.027L91.394,549.544L88.844,553.073L88.736,554.702L89.414,554.869L89.158,555.841L89.493,556.231L90.25,556.053L90.558,556.801L91.199,556.973L91.076,557.296L92.061,558.698L93.406,559.619L93.445,560.044L95.69,560.686L100.585,560.232L101.156,561.749L101.156,561.749L101.214,562.919L100.269,564.74L100.315,565.476L99.399,569.112L97.904,571.771L93.586,575.419L91.364,576.326L89.62,578.201L88.206,578.503L84.104,578.263L83.445,579.038L83.232,580.623L82.703,581.695L82.196,585.934L82.522,590.046L82.349,590.989L79.807,594.708L80.29,595.399L80.866,595.386L79.945,596.253L78.708,596.771L79.08,598.087L78.779,598.888L79.401,599.766L80.861,600.535L80.857,601.912L79.854,603.079L79.146,603.171L78.354,604.225L77.552,604.474L76.957,605.306L77.938,606.727L77.925,607.316L77.372,607.209L76.211,607.632L75.34,607.301L74.841,607.445L74.184,608.417L74.134,609.024L74.401,609.412L76.639,610.86L76.544,611.469L77.933,612.985L78.023,615.116L76.873,615.176L75.942,616.414L75.942,616.414L74.928,612.074L73.112,608.473L73.173,608.132L72.661,607.722L71.963,607.967L71.29,607.746L71.353,607.025L70.857,606.741L70.785,607.099L68.586,604.806L67.718,603.379L66.775,602.913L66.483,600.178L65.621,597.539L62.196,593.103L61.397,592.69L60.589,592.675L60.232,590.397L60.37,586.867L60.007,585.635L59.136,584.577L58.606,583.032L57.97,582.53L56.663,580.489L54.993,579.501L52.95,577.426L51.595,577.06L50.654,576.237L48.786,576.097L47.868,575.491L47.271,574.058L46.472,573.763L45.67,572.349L44.79,571.513L44.247,569.176L43.033,566.29L40.437,564.123L39.205,561.784L39.205,561.784L41.075,560.658L40.401,558.736L41.105,555.638L41.108,554.082L39.975,553.093L40.468,550.589L40.49,549.856L40.118,549.815L40.143,549.522L40.603,549.017L42.071,548.675L42.553,548.23L42.727,547.022L42.529,545.723L41.579,545.42L41.326,545.081L41.209,543.35L40.562,540.715L39.514,537.818L38.659,536.34L38.263,531.512L37.765,531.05L37.765,531.05L40.959,529.358L43.015,525.016L54.302,512.233L63.393,500.597L67.259,495.197L76.179,480.53z"/>
    </g>
</svg>