<?xml version="1.0" encoding="utf-8"?>
<svg xmlns="http://www.w3.org/2000/svg" viewBox="248 505 450 260" width="800px" height="230px">
    <defs>
        <style type="text/css">
            .land {
                fill: #FFE2E2;
            }
        </style>

    </defs>
    <g>
        <path id="SN-TC" title="Tambacounda" class="land" d="M267.232,645.003l-0.002,-0.006l0,0L267.232,645.003zM267.232,645.003l0.457,-0.452l-0.042,-0.4l1.001,-0.854l1.875,-2.465l8.11,-0.81l2.786,-6.691l1.663,-0.775l7.078,-4.74l1.727,-4.697l-2.508,-0.209l2.159,-1.283l0.639,-0.725l-0.909,-6.845l1.057,-1.465l-0.374,-0.496l-0.673,-0.225l0.737,-4.613l-1.073,-11.496l-0.071,-0.405l-2.756,-2.377l-1.602,-1.853l0.699,-13.054l0.347,-0.187l0.106,-0.515l-0.248,-3.09l0.574,-9.408l2.125,-0.162l0.581,-1.271l0,0l2.582,-0.009l2.308,1.422l3.682,-0.209l0.986,-1.494l1.337,-0.719l6.072,-2.549l1.881,-1.079l1.644,-0.374l2.369,2.301l8.701,1.634l5.85,3.408l-0.245,0.443l2.621,0.351l7.614,2.565l4.017,-4.794l11.592,-1.18l7.675,1.392l9.705,15.454l16.463,0.381l10.245,-0.361l0.972,-0.502l13.43,-10.417l1.597,-1.732l1.784,-0.888l8.77,-6.792l20.475,3.148l3.69,0.781l4.77,1.452l15.336,-2.247l7.443,-3.354l6.649,-9.203l6.214,-19.27l-1.133,-1.862l-0.261,-0.949l0.262,-0.347l-0.409,-0.449l0.845,-1.415l-0.503,-0.229l-0.219,-0.918l-0.527,0.275l-0.709,-1.278l-0.292,-0.703l0.518,-0.765l-0.715,-0.437l-0.337,-1.7l-1.657,-2.333l-0.49,-1.355l-0.434,0.053l-3.646,-5.031l0,0l0.186,-1.279l0.432,-0.649l1.029,-0.378l1.113,0.135l5.153,2.474l1.819,2.188l3.779,3.114l5.785,1.716l1.397,1.16l1.64,2.056l0.827,6.05l0.41,0.845l-0.499,1.649l0.09,0.505l1.391,1.061l2.537,2.629l1.689,1.225l4.183,1.662l2.761,0.319l4.482,5.27l3.881,0.869l0.707,2.662l1.361,0.165l0.818,0.521l0.32,1.237l-0.571,1.361l0.604,0.681l0.905,0.346l1.675,-0.007l1.007,0.878l0.977,-0.245l0.257,0.222l-0.091,0.684l-1.509,0.809l-0.166,0.751l0.236,0.27l2.313,0.535l0.515,0.41l0.19,1.651l-0.426,1.301l-0.528,0.609l-1.686,0.286l-0.077,2.866l-1.384,1.927l-0.087,1.252l-2.133,-0.122l-0.846,0.813l0.366,2.282l-0.705,1.807l-0.053,1.63l2.118,1.313l-0.694,2.197l1.649,1.617l-0.017,0.346l-1.205,1.483l0.048,1.763l1.919,0.982l0.513,-0.446l0.654,0.049l0.629,1.209l0.858,0.422l1.171,0.035l0.415,-0.427l0.836,0.212l0.276,-0.109l-0.229,-0.495l0.414,-0.172l0.154,0.534l-0.542,0.783l0.519,1.039l0.714,0.372l0.257,-0.48l1.117,-0.414l0.868,0.842l0.04,0.67l-0.244,0.158l0.221,0.446l-0.45,-0.103l-0.493,0.736l1.363,1.25l-0.459,0.519l-0.182,-0.188l-0.273,-0.125l-0.141,0.289l-0.164,-0.356l-0.33,-0.093l0.003,0.435l-0.25,-0.051l0.341,0.527l1.384,0.212l-0.521,0.324l0.313,0.173l-0.215,0.473l-0.85,0.231l0.101,0.259l0.434,0.215l0.617,0.299l1.057,-0.075l0.69,0.83l1.341,-0.2l1.81,1.055l1.057,-0.099l-0.051,0.464l0.278,0.17l0.363,-0.35l0.603,0.645l2.353,6.663l0.959,0.854l0.016,1.363l1.18,0.503l0.228,0.437l-0.251,3.748l-0.694,0.982l-0.4,1.371l0.39,0.884l0.168,2.731l-1.398,0.363l0.26,2.104l-0.745,1.206l-0.646,0.199l0.104,1.752l-0.753,0.512l1.019,2.081l0.071,0.719l-0.357,0.468l6.555,-0.289l0.829,7.39l-1.018,6.353l-0.432,0.579l0.073,1.104l-0.599,2.527l0.16,1.172l-1.115,0.367l-0.407,0.912l-0.946,0.253l-0.682,1.463l-2.025,1.669l-0.122,0.718l-0.646,0.533l-0.714,0.007l-2.218,1.64l-2.092,0.793l-0.604,0.792l-0.773,-0.253l3.329,5.828l0.349,1.525l-0.147,2.438l3.669,3.169l0.391,0.652l-0.121,1.792l1.436,0.698l1.141,1.707l0.237,0.883l1.693,1.299l2.377,0.796l0.785,1.351l2.402,1.303l0.58,1.211l1.479,0.732l0.612,0.669l0.443,1.209l-0.025,1.111l-0.169,0.605l-1.147,1.085l-0.129,1.11l-0.849,1.902l0.156,0.833l0,0l-0.948,0.267l-0.788,0.604l-2.125,0.373l-0.385,0.461l-0.812,0.312l-0.938,-0.291l-0.71,0.13l-0.814,1.44l-2.227,2.124l-0.441,0.033l-0.394,0.444l-1.002,0.005l-1.166,1.471l-1.36,-0.234l-0.454,-1.482l0.415,-0.355l0.272,-1.081l-0.397,-0.953l0.371,-1.952l-2.604,1.369l-1.823,-1.222l-3.256,-0.575l-1.789,-1.666l-1.091,-0.286l-0.681,-0.776l-0.365,-1.193l-1.649,-0.55l-3.459,-1.976l-0.35,-0.441l-2.205,-1.042l-0.36,0.14l-1.474,-0.836l-0.808,0.526l0.194,1.512l-0.307,1.597l-0.58,0.2l-0.573,1.013l0.252,0.528l-0.053,1.299l2.962,4.653l0.756,0.652l0.114,0.368l-0.952,1.608l-0.993,0.561l-0.954,0.079l-0.485,0.461l-1.646,-0.442l-1.906,0.157l-0.497,-0.3l-1.1,-0.034l-0.363,2.5l-1.197,1.472l0.007,1.387l-0.144,0.285l-0.942,0.307l-0.439,-0.136l-1.044,-1.626l-2.658,-1.694l-2.612,1.048l-1.231,-0.222l-0.707,1.303l-1.543,0.409l-1.725,1.34l-0.104,0.458l-0.391,0.004l0.115,1.013l-1.357,0.687l-0.668,2.561l-0.75,0.504l0.001,0.575l-0.342,0.236l-1.022,-0.287l-0.923,0.232l-0.446,0.356l-0.189,0.665l-0.358,0.027l-0.352,-0.455l-0.781,0.468l-0.511,-0.425l-1.047,0.552l-0.722,-0.224l-0.685,-0.552l-0.644,-1.108l-0.841,0.021l-0.381,0.324l-0.309,-0.873l-0.846,-0.261l-0.194,1.272l-1.087,0.338l0.131,0.281l-2.52,-0.489l-0.516,0.355l0.001,0.561l-0.49,0.573l-0.805,0.384l-0.57,-0.406l-0.39,0.654l-0.718,0.213l-0.95,-0.133l0.081,1.331l0.275,0.063l-0.228,0.294l0.247,0.324l-0.446,0.746l0.723,0.459l-0.223,0.364l0.365,0.276l-0.717,-0.123l0.122,0.976l-1.407,0.926l0.142,1.21l-1.119,0.33l-0.442,1.048l-1.735,0.179l-0.042,0.694l0.354,0.274l-0.015,0.35l-0.777,0.517l-0.484,0.138l-0.426,-0.451l-1.096,-0.361l-0.503,0.137l-0.083,0.63l-0.812,-0.408l-0.336,1.11l0.399,1.065l-0.307,0.174l-0.382,-0.372l-0.949,0.265l0.047,1.693l-1.354,0.126l-0.906,-0.303l-0.242,0.113l0.186,0.642l-1.394,0.159l0.035,0.46l0.675,0.918l-0.847,-0.313l-0.488,0.164l-0.097,0.718l0.867,0.799l-0.268,0.586l-1.529,-0.27l-0.835,-1.747l-1.14,0.855l-0.573,-0.512l-1.015,-0.249l0.298,-0.746l-0.797,-0.56l-0.709,0.347l-0.23,-1.285l-1.652,-0.926l-0.469,-0.648l-0.508,0.745l-0.585,0.316l-0.418,-0.94l0.146,-0.54l-0.376,0.06l-0.567,-0.679l-0.878,-0.011l-0.201,-0.263l0.552,-1.427l-1.313,0.662l-0.947,-0.807l-1.373,1.208l-0.574,-0.687l-1.168,0.199l-0.675,-0.662l-0.272,0.646l-0.975,0.461l-1.184,0.266l-0.71,-0.129l0.017,0.835l-0.267,0.433l-1.107,-0.275l-0.85,0.144l-0.797,-0.801l-0.258,0.716l-0.968,0.649l-1.177,1.986l-0.767,0.327l-1.578,-1.214l-3.209,-1.549l-0.898,0.583l-0.75,-0.527l-0.379,0.073l-0.175,0.452l-1.082,-0.051l0.543,-0.427l-0.832,-1.035l-0.748,0.283l-0.098,0.76l-0.293,0.163l-0.552,-0.078l0.05,-0.569l-0.913,0.909l-1.34,-0.037l0.215,1.08l-0.229,0.292l0.315,0.5l-0.885,0.747l-0.68,0.081l-0.877,0.856l-0.459,0.074l-0.229,-0.254l-0.169,0.578l0.435,0.405l2.103,0.338l0.543,1.553l1.172,1.027l0.497,1.595l0.298,-0.023l0.376,-0.685l0.281,0.029l1.421,1.334l0.19,1.054l0.64,1.164l1.092,0.693l-0.04,1.032l0.297,0.606l-1.115,1.235l-0.753,0.326l-0.979,-0.432l-0.962,0.109l1.319,0.985l-0.377,1.212l0.124,0.7l2.529,1.291l-0.807,1.259l0.202,0.884l2.601,0.881l1.912,-0.016l0.639,0.99l-0.084,0.287l-1.169,0.56l0.255,0.577l0.983,0.787l-0.618,0.249l-0.896,1.41l0.366,0.743l-0.332,0.634l1.159,4.458l1.521,1.867l-1.928,0.255l-1.634,0.64l-2.23,1.169l-0.627,0.647l-0.008,1.155l0.646,0.864l2.532,1.424l-0.125,0.258l0,0l-0.483,0.079l-0.471,-0.578l-0.307,0.003l-0.16,0.914l-0.592,-0.558l-1.125,-0.257l-0.295,0.681l-1.166,-0.267l-0.704,0.968l-1.175,-1.063l-1.25,-0.324l0.082,-0.674l-0.47,-0.421l-0.54,0.412l-0.539,-0.163l-0.332,0.688l-0.668,0.354l-0.873,-0.94l-0.879,0.424l-0.893,-0.6l-1.322,0.11l-1.375,-0.548l-0.927,0.488l0.172,0.564l-1.785,0.153l-0.356,-0.216l-0.835,0.463l-1.303,-0.245l0.267,-1.018l-0.474,-0.378l-0.599,0.669l-0.439,-0.527l0.052,-2.678l-0.224,-0.673l-0.652,-0.103l0,0l-1.877,-0.492l-0.831,0.288l-0.157,0.527l-0.671,0.261l-0.257,0.771l-0.644,0.072l-1.079,-0.393l-1.401,0.758l-0.777,-0.55l0.152,-0.946l-0.51,-0.386l-0.558,0.092l0.515,-0.697l-0.422,0.009l-0.3,0.355l-0.226,-0.145l0.761,-0.462l0.207,-0.759l-0.522,0.46l-0.343,-0.361l-0.814,-0.188l-0.931,1.049l-0.791,0.239l0.341,-1.055l0.43,-0.095l-0.305,-1.127l-0.737,-0.475l0.445,-0.108l0.214,0.371l0.299,-0.029l0.453,-0.637l-0.365,-0.999l-0.523,-0.203l-0.239,-0.561l0.41,-0.625l0.697,0.129l-0.44,-1.271l0.415,-0.741l-0.372,-1.44l-0.694,0.587l-0.27,-0.229l1.014,-1.796l-0.239,-0.566l-1.31,-0.104l-0.359,-1.96l1.356,-0.92l-0.198,-1.047l-1.04,-0.443l0.128,-0.359l0.585,0.005l0.82,0.194l0.723,0.562l0.565,-0.449l-0.286,-0.819l-2.027,-1.617l0.136,-0.378l0.989,-0.028l-0.507,-0.473l0.49,-1.362l-0.588,-0.204l-0.956,0.152l-1.322,-1.205l-0.981,-0.173l-0.08,-1.252l-0.551,-0.947l0.803,0.11l0.68,-1.097l-0.542,-0.75l-0.342,0.059l0.198,0.462l-1.063,-0.055l-0.575,-0.934l0.775,-0.996l1.304,-0.287l-0.004,-0.671l-0.555,0.368l-0.493,-0.188l0.083,-0.771l-0.861,-0.965l0.958,-0.557l0.319,-1.025l-1.119,-0.976l-1.225,1.062l-0.201,-0.464l-0.361,0.146l0.264,-1.259l0.575,-0.117l-0.479,-0.347l1.118,-0.379l-0.095,-1.109l-0.888,0.149l-0.254,0.311l-0.067,-0.597l-0.402,0.472l-0.076,-0.377l-0.928,-0.34l0.315,-0.356l0.19,-0.105l0.001,-0.244l-0.705,-0.811l-0.621,0.503l-0.262,-0.105l0.171,-0.424l-0.259,-0.151l0.983,-0.864l-0.946,-0.891l-0.678,0.195l0.173,0.37l0.171,0.37l-0.188,0.268l-0.681,-0.275l-0.06,0.376l-0.469,-0.172l-0.308,-0.374l-0.017,-0.962l0.439,-0.212l0.235,-0.521l-0.394,-0.222l0.017,-0.413l0.541,0.205l0.089,-0.321l-0.747,-0.143l-0.75,0.958l-0.056,-0.743l0.285,-0.212l-0.5,-0.599l0.349,-0.38l-0.187,-0.475l-0.54,-0.031l-0.004,0.418l-0.323,-0.685l-0.325,0.098l-0.366,-0.399l0.251,-0.258l-0.169,-0.302l0.304,-0.045l-0.325,-0.329l0.108,-0.302l0.363,0.125l0.134,-0.312l-0.971,-0.39l-0.205,0.235l-0.593,-0.416l-0.279,0.25l-0.272,-0.15l0.086,-0.667l0.865,-0.271l-0.104,-0.353l-0.624,-0.029l0.227,-0.776l0.616,0.482l0.391,-0.424l-0.21,-0.41l-0.642,-0.136l-0.148,-0.458l0.153,-0.15l0.361,0.271l0.09,-0.45l-0.285,-0.038l-0.015,-0.303l-0.629,0.1l-0.197,-0.365l0.55,-0.523l-0.368,-0.161l0.242,-0.33l0.537,-0.012l0.274,-0.661l-0.281,-0.229l0.379,-0.462l-0.145,-0.278l-0.938,-0.184l0.596,-0.495l0.521,-0.033l0.244,0.617l-0.013,-1.088l0.417,-0.165l-0.46,-0.285l0.002,-0.528l-0.517,-0.265l-0.385,0.158l0.153,-0.837l0.471,0.202l-0.473,-0.762l0.127,-0.295l-0.438,-0.029l-0.042,-0.564l-0.402,-0.344l-0.466,0.471l-0.652,0.144l-0.797,0.003l-0.776,-0.434l-0.143,-0.767l0.716,-1.813l-1.02,-0.876l-2.75,0.422l-1.126,-1.288l-0.113,-0.556l1.207,-1.208l1.368,-3.36l-0.182,-0.249l-0.856,0.149l-2.536,0.861l-0.425,-0.836l1.791,-2.262l1.143,-0.775l0.071,-0.979l-0.346,-0.264l-1.666,0.084l-5.021,1.125l-2.325,-0.059l-0.516,-0.364l1.507,-1.358l0.734,-1.174l0.081,-1.533l-0.71,-0.763l-0.02,-0.965l1.555,-1.186l1.851,-0.948l0.564,-1.21l-2.322,-1.271l-3.145,-0.78l-2.284,1.952l-0.882,-0.144l-0.424,-1.36l1.007,-2.32l0.093,-1.845l1.034,-1.469l-0.257,-0.725l-1.214,0.247l-2.107,-0.452l-1.094,2.384l0.058,1.911l-2.122,-0.733l-0.576,0.073l0,0l-0.916,-1.014l-1.146,-2.085l-0.963,-0.99l-1.401,-0.761l-3.354,-0.937l-1.932,-0.988l-1.486,-0.116l-2.167,0.644l-3.184,1.958l-6.124,-0.123l-4.611,1.812l-2.269,0.225l-4.112,2.356l-2.164,1.862l-1.513,1.858l-3.528,0.282l-4.736,1.678l-2.604,-1.123l-2.098,-0.298l-0.683,-0.811l-1.851,-1.171l-3.236,-1.295l-0.649,-1.21l-0.957,-0.996l-2.469,-1.716l-0.104,-1.757l-0.644,-2.688l-1.974,-3.197l-2.167,-1.71l-2.912,-1.562l-3.29,-0.628l-4.467,-0.067l-3.202,1.223l-2.997,1.88l-1.052,0.965l-0.925,0.083l-7.045,-3.779l-0.409,-1.542l-0.776,-0.086l-0.115,-0.608l0.677,-0.59l-0.13,-1.469l-0.61,-2.283l-1.02,-0.702l0.22,-1.162l-0.452,-0.632l-0.694,-0.091l-0.474,-1.337L267.232,645.003z"/>
    </g>
</svg>