<?xml version="1.0" encoding="utf-8"?>
<svg xmlns="http://www.w3.org/2000/svg" viewBox="68 704 100 86" width="800px" height="230px">
    <defs>
        <style type="text/css">
            .land {
                fill: #FFE2E2;
            }
        </style>

    </defs>
    <g>
        <path id="SN-ZG" title="Ziguinchor" class="land ziguinchor" d="M90.072,705.396L90.548,705.737L91.49,705.754L93.572,705.284L94.715,705.79L96.572,705.851L115.769,705.762L133.301,706.043L149.929,705.952L157.145,705.368L162.913,705.571L162.913,705.571L162.657,707.65L162.478,707.877L161.725,707.819L160.118,709.12L158.974,710.483L158.77,711.116L159.485,712.742L160.17,713.078L160.99,712.886L162.143,713.102L162.401,714.017L162.212,715.184L160.045,718.093L159.483,720.678L158.777,722.395L157.653,724.02L157.105,724.455L156.126,724.646L155.546,726.762L155.144,727.371L154.066,727.645L153.53,728.59L153.593,729.88L153.074,730.133L152.721,730.837L153.576,730.929L153.822,731.202L154.257,732.326L153.825,732.639L153.827,733.028L154.983,733.327L155.056,733.868L154.378,734.842L154.959,736.698L154.335,738.238L152.061,740.109L152.155,741.59L153.321,743.501L152.658,746.083L150.908,746.941L150.048,747.849L150.412,749.839L151.211,750.873L150.167,754.41L150.64,757.115L152.462,756.979L152.865,757.192L153.961,757.917L155.653,760.097L156.263,762.961L156.567,763.143L156.539,763.668L155.78,764.599L155.865,765.311L157.059,767.041L156.925,768.424L157.221,769.293L159.416,770.546L160.137,771.677L160.066,773.226L160.332,774.155L159.509,774.651L159.656,775.447L160.049,776.333L161.629,775.602L162.83,776.047L163.292,776.479L163.384,777.678L163.384,777.678L156.912,778.467L148.58,775.568L145.61,775.669L136.455,777.958L132.446,776.665L125.795,779.577L118.773,783.631L115.577,785.14L114.896,786.572L110.958,786.221L104.396,787.072L101.979,787.766L98.678,786.766L92.681,788.161L89.26,787.116L84.365,786.897L81.438,788.829L80.305,787.373L80.128,785.843L79.685,784.926L79.202,784.543L78.848,784.632L78.206,783.779L76.141,782.343L74.403,776.996L74.215,774.228L75.821,770.237L76.826,762.705L76.56,760.588L75.545,758.694L75.491,758.153L75.853,757.772L74.876,755.908L74.512,753.073L75.603,750.142L75.694,748.56L75.13,747.772L74.299,747.826L74.61,747.478L74.6,746.932L74.244,745.788L75.531,742.147L75.666,740.399L76.353,737.204L77.039,735.415L77.998,729.687L78.683,727.816L79.671,719.554L79.529,717.944L78.476,715.943L78.95,715.029L80.177,714.588L80.348,714.17L79.883,713.124L80.591,712.739L79.566,711.838L79.592,711.323L79.875,710.845L80.302,710.821L80.965,711.432L81.076,710.98L80.689,710.183L81.937,710.134L82.215,709.855L82.311,708.92L83.094,708.979L82.893,708.011L82.285,707.354L82.646,706.715L83.291,706.973L83.025,706.115L84.013,706.323L84.341,705.525L86.026,705.539L87.247,704.896z"/>
    </g>
</svg>